<svg width="32" height="32" viewBox="0 0 32 32" fill="none" xmlns="http://www.w3.org/2000/svg">
<path fill-rule="evenodd" clip-rule="evenodd" d="M32 15.7606C32 24.4649 24.8366 31.5211 16 31.5211C7.16344 31.5211 0 24.4649 0 15.7606C0 7.05624 7.16344 0 16 0C24.8366 0 32 7.05624 32 15.7606ZM15.7804 10.2063C16.4432 10.2012 16.9846 10.7262 16.9898 11.379L17.0145 14.4616L20.1438 14.4858C20.8065 14.491 21.3395 15.0243 21.3343 15.6771C21.3291 16.3299 20.7876 16.855 20.1249 16.8498L17.0334 16.8259L17.0577 19.8711C17.0629 20.5239 16.5299 21.0573 15.8672 21.0624C15.2044 21.0675 14.663 20.5425 14.6578 19.8897L14.6331 16.8073L11.5038 16.783C10.8411 16.7779 10.3081 16.2445 10.3133 15.5917C10.3185 14.9389 10.86 14.4139 11.5227 14.419L14.6142 14.443L14.5899 11.3976C14.5847 10.7448 15.1177 10.2115 15.7804 10.2063Z" fill="#23221E"/>
</svg>
