<svg width="38" height="38" viewBox="0 0 38 38" fill="none" xmlns="http://www.w3.org/2000/svg">
<path d="M19 0C8.531 0 0 8.40334 0 18.7157C0 29.028 8.531 37.4313 19 37.4313C29.469 37.4313 38 29.028 38 18.7157C38 8.40334 29.469 0 19 0ZM22.002 19.614L18.202 24.1245C17.917 24.4614 17.518 24.6298 17.1 24.6298C16.777 24.6298 16.454 24.5362 16.188 24.3117C15.599 23.8251 15.504 22.9454 15.998 22.3465L19.057 18.7157L15.998 15.0848C15.504 14.4859 15.599 13.6063 16.188 13.1197C16.796 12.6144 17.708 12.7079 18.202 13.3068L22.002 17.8173C22.439 18.3414 22.439 19.09 22.002 19.614Z" fill="#23221E"/>
</svg>
