<svg width="57" height="57" viewBox="0 0 57 57" fill="none" xmlns="http://www.w3.org/2000/svg">
<path d="M28.8705 0H28.1295C12.6255 0 0 12.6255 0 28.1295V28.8705C0 44.3745 12.6255 57 28.1295 57H28.8705C44.3745 57 57 44.3745 57 28.8705V28.1295C57 12.6255 44.3745 0 28.8705 0ZM38.817 30.0105L31.806 37.05C31.3785 37.449 30.837 37.677 30.2955 37.677C29.754 37.677 29.184 37.449 28.785 37.05C27.93 36.195 27.93 34.8555 28.785 34.029L32.148 30.6375H19.6935C18.4965 30.6375 17.556 29.6685 17.556 28.5C17.556 27.3315 18.4965 26.3625 19.6935 26.3625H32.148L28.785 22.971C27.93 22.1445 27.93 20.805 28.785 19.95C29.6115 19.1235 30.951 19.1235 31.806 19.95L38.817 26.9895C39.672 27.816 39.672 29.184 38.817 30.0105Z" fill="#ECEBBD"/>
</svg>
