<svg width="27" height="28" viewBox="0 0 27 28" fill="none" xmlns="http://www.w3.org/2000/svg">
<path d="M26.8682 8.55179C26.8531 7.43508 26.6408 6.32948 26.241 5.28444C25.8942 4.40296 25.3646 3.60241 24.686 2.93395C24.0074 2.26549 23.1947 1.74381 22.2998 1.40226C21.2525 1.01501 20.1461 0.805618 19.0277 0.782998C17.5878 0.719598 17.1313 0.701904 13.476 0.701904C9.82072 0.701904 9.35221 0.701904 7.92274 0.782998C6.80484 0.805784 5.69896 1.01517 4.65216 1.40226C3.75714 1.74358 2.9443 2.26516 2.26566 2.93365C1.58701 3.60215 1.0575 4.40282 0.710995 5.28444C0.317076 6.31527 0.104963 7.40484 0.0838226 8.50608C0.0194588 9.92596 0 10.3757 0 13.9762C0 17.5768 -1.11523e-08 18.0368 0.0838226 19.4464C0.106275 20.5492 0.317328 21.6374 0.710995 22.671C1.05808 23.5523 1.58798 24.3527 2.26686 25.0209C2.94573 25.6891 3.75864 26.2104 4.65365 26.5517C5.69759 26.9545 6.80366 27.1789 7.92423 27.2152C9.36568 27.2786 9.82222 27.2977 13.4775 27.2977C17.1327 27.2977 17.6013 27.2977 19.0307 27.2152C20.1491 27.1935 21.2556 26.9846 22.3028 26.5974C23.1975 26.2554 24.01 25.7336 24.6885 25.0652C25.3671 24.3968 25.8968 23.5964 26.244 22.7152C26.6376 21.6831 26.8487 20.595 26.8711 19.4906C26.9355 18.0722 26.955 17.6225 26.955 14.0205C26.952 10.4199 26.952 9.96282 26.8682 8.55179ZM13.467 20.7852C9.6441 20.7852 6.54715 17.7346 6.54715 13.9689C6.54715 10.2032 9.6441 7.15255 13.467 7.15255C15.3023 7.15255 17.0624 7.87069 18.3601 9.149C19.6578 10.4273 20.3869 12.1611 20.3869 13.9689C20.3869 15.7766 19.6578 17.5104 18.3601 18.7887C17.0624 20.067 15.3023 20.7852 13.467 20.7852ZM20.6623 8.48986C20.4503 8.49005 20.2404 8.44907 20.0446 8.36927C19.8487 8.28946 19.6707 8.17239 19.5209 8.02476C19.371 7.87713 19.2521 7.70183 19.1711 7.5089C19.0901 7.31597 19.0485 7.1092 19.0487 6.90042C19.0487 6.69179 19.0904 6.4852 19.1715 6.29245C19.2525 6.0997 19.3713 5.92456 19.5211 5.77704C19.6709 5.62951 19.8486 5.51249 20.0443 5.43265C20.24 5.35281 20.4497 5.31172 20.6615 5.31172C20.8733 5.31172 21.0831 5.35281 21.2787 5.43265C21.4744 5.51249 21.6522 5.62951 21.802 5.77704C21.9517 5.92456 22.0705 6.0997 22.1516 6.29245C22.2327 6.4852 22.2744 6.69179 22.2744 6.90042C22.2744 7.77918 21.5529 8.48986 20.6623 8.48986Z" fill="#ECEBBD"/>
<path d="M13.4669 18.3967C15.9494 18.3967 17.9619 16.4143 17.9619 13.969C17.9619 11.5236 15.9494 9.54126 13.4669 9.54126C10.9844 9.54126 8.97192 11.5236 8.97192 13.969C8.97192 16.4143 10.9844 18.3967 13.4669 18.3967Z" fill="#ECEBBD"/>
</svg>
