<svg width="100" height="94" viewBox="0 0 100 94" fill="none" xmlns="http://www.w3.org/2000/svg">
<path d="M95.7434 0.000585986L89.1866 0C89.1866 0 89.1864 0 89.186 0C88.0573 0 86.9745 0.448632 86.1765 1.24687L60.332 27.0905L2.96599 45.3497C1.33592 45.8686 0.174597 47.3127 0.0179568 49.0164C-0.138683 50.7201 0.739829 52.3518 2.24803 53.1592L27.0222 66.4211L40.2833 91.1944C41.0288 92.5866 42.4766 93.4423 44.0352 93.4423C44.1649 93.4423 44.2952 93.4362 44.426 93.4245C46.1299 93.2675 47.5741 92.1065 48.0928 90.4763L66.3519 33.1106L90.9493 8.51364L95.743 8.51384H95.7432C98.0942 8.51384 100 6.60818 100 4.2576C100 1.90683 98.0944 0.000781298 95.7434 0.000585986ZM43.035 78.2953L33.92 61.2672C33.5239 60.5266 32.9169 59.9197 32.1761 59.5231L15.1464 50.4073L47.2248 40.1966L41.5389 45.8825C39.8764 47.545 39.8764 50.2401 41.5387 51.9028C42.3702 52.734 43.4594 53.1496 44.5485 53.1494C45.6379 53.1494 46.7274 52.7336 47.5586 51.9028L53.2451 46.2163L43.035 78.2953Z" fill="#AEB798"/>
</svg>
