<svg width="44" height="48" viewBox="0 0 44 48" fill="none" xmlns="http://www.w3.org/2000/svg">
<path fill-rule="evenodd" clip-rule="evenodd" d="M13.3286 10.1159C13.3286 6.70589 16.0729 3.93166 19.4461 3.93166H24.3401C27.7132 3.93166 30.4575 6.70589 30.4575 10.1159V12.1171C27.6019 12.028 24.7475 11.9711 21.8931 11.9711C19.0374 11.9711 16.183 12.028 13.3286 12.1171V10.1159ZM34.128 12.2544V10.1159C34.128 4.6515 29.7455 0.22113 24.3401 0.22113H19.4461C14.0394 0.22113 9.6581 4.6515 9.6581 10.1159V12.2544C6.57366 12.3917 3.48924 12.571 0.404806 12.8109C0.25921 22.7811 1.47781 32.9208 3.50515 43.1866C3.95784 45.1717 5.76371 46.7511 7.7005 46.855C12.4318 47.0999 17.1618 47.2211 21.8931 47.2211C26.6243 47.2211 31.3544 47.0999 36.0856 46.855C38.0224 46.7511 39.8283 45.1704 40.281 43.1866C42.3083 32.9208 43.5269 22.7811 43.3813 12.8109C40.2969 12.571 37.2125 12.3917 34.128 12.2544Z" fill="#ECEBBD"/>
</svg>
