<svg width="28" height="22" viewBox="0 0 28 22" fill="none" xmlns="http://www.w3.org/2000/svg">
<path d="M27.9551 3.10641C27.5856 3.62832 27.1659 4.11709 26.7015 4.56655C26.2347 5.01888 25.7276 5.43257 25.1857 5.80302C25.2031 6.03116 25.2121 6.25981 25.2127 6.48854C25.2127 7.53227 25.095 8.56327 24.8578 9.58336C24.6214 10.5998 24.2764 11.591 23.8279 12.5418C23.2068 13.8814 22.386 15.1305 21.3902 16.2512C20.4359 17.323 19.318 18.2551 18.0731 19.0169C16.8238 19.777 15.4623 20.3591 14.0327 20.7444C12.541 21.1469 10.9963 21.3483 9.44465 21.3426C7.94831 21.3444 6.45931 21.1454 5.02244 20.7516C3.58235 20.3564 2.21187 19.7633 0.955078 18.9915C2.4057 19.1568 3.87666 19.0508 5.28377 18.6795C6.69088 18.3082 8.00652 17.6789 9.15536 16.8277C8.29591 16.8163 7.45132 16.6146 6.68983 16.2387C5.92833 15.8628 5.27127 15.3233 4.77172 14.6638C4.431 14.2206 4.16613 13.7298 3.98679 13.2091C4.16229 13.2346 4.33586 13.2564 4.50751 13.2728C5.16947 13.3339 5.83771 13.279 6.47851 13.111C5.84643 12.9934 5.24167 12.7705 4.69265 12.4527C4.16067 12.1445 3.68629 11.7556 3.28865 11.3017C2.47232 10.3698 2.02869 9.19733 2.03508 7.98867V7.92867C2.81036 8.34143 3.64929 8.56145 4.55379 8.58691C3.79959 8.10254 3.18038 7.45384 2.74865 6.69583C2.53723 6.32197 2.37345 5.92585 2.26072 5.51572C2.03111 4.6478 2.03575 3.73947 2.27422 2.87367C2.39572 2.43181 2.58472 2.01177 2.84122 1.61355C3.54322 2.43363 4.32622 3.17006 5.18636 3.81921C6.89587 5.11185 8.8712 6.05607 10.9875 6.59218C12.0557 6.86207 13.1517 7.02241 14.2564 7.07041C14.2031 6.87641 14.1657 6.67884 14.1446 6.47945C14.1229 6.27947 14.1119 6.07859 14.1118 5.87757C14.1118 5.15569 14.2564 4.47745 14.5477 3.84466C15.1123 2.5943 16.1684 1.59857 17.4945 1.06623C18.1751 0.791584 18.9084 0.652304 19.6487 0.657102C20.408 0.65362 21.1598 0.798719 21.8566 1.08322C22.5534 1.36773 23.18 1.78545 23.6968 2.30998C24.9341 2.07967 26.1201 1.65034 27.2029 1.04077C26.8015 2.25246 25.9368 3.28028 24.7768 3.92467C25.8737 3.80447 26.9451 3.52924 27.9551 3.10823V3.10641Z" fill="#ECEBBD"/>
</svg>
